<svg width="32" height="27" viewBox="0 0 32 27" fill="none" xmlns="http://www.w3.org/2000/svg">
<path d="M14.5714 3.64293C14.5714 1.63177 12.9397 6.83069e-05 10.9286 6.83069e-05H3.64286C1.6317 6.83069e-05 0 1.63177 0 3.64293V10.9286C0 12.9398 1.6317 14.5715 3.64286 14.5715H7.89286C8.89844 14.5715 9.71429 15.3873 9.71429 16.3929V17.0001C9.71429 19.6753 7.53237 21.8572 4.85714 21.8572H3.64286C2.97879 21.8572 2.42857 22.4074 2.42857 23.0715V25.5001C2.42857 26.1641 2.97879 26.7144 3.64286 26.7144H4.85714C10.2076 26.7144 14.5714 22.3505 14.5714 17.0001V3.64293ZM31.5714 3.64293C31.5714 1.63177 29.9397 6.83069e-05 27.9286 6.83069e-05H20.6429C18.6317 6.83069e-05 17 1.63177 17 3.64293V10.9286C17 12.9398 18.6317 14.5715 20.6429 14.5715H24.8929C25.8984 14.5715 26.7143 15.3873 26.7143 16.3929V17.0001C26.7143 19.6753 24.5324 21.8572 21.8571 21.8572H20.6429C19.9788 21.8572 19.4286 22.4074 19.4286 23.0715V25.5001C19.4286 26.1641 19.9788 26.7144 20.6429 26.7144H21.8571C27.2076 26.7144 31.5714 22.3505 31.5714 17.0001V3.64293Z" />
</svg>
