<?xml version="1.0" standalone="no"?>
<svg version="1.0" xmlns="http://www.w3.org/2000/svg"
 width="64.000000pt" height="64.000000pt" viewBox="0 0 64.000000 64.000000" fill="#2b4074"
 preserveAspectRatio="xMidYMid meet">
<g transform="translate(0.000000,64.000000) scale(0.100000,-0.100000)" stroke="none">
<path d="M215 611 c-84 -38 -135 -116 -135 -206 0 -88 28 -130 151 -228 40
-31 49 -45 61 -94 9 -37 19 -58 28 -58 9 0 19 21 28 58 12 49 21 63 61 94 123
98 151 140 151 228 0 90 -51 168 -135 206 -54 25 -156 25 -210 0z m125 -131
l0 -50 50 0 c43 0 50 -3 50 -20 0 -17 -7 -20 -50 -20 l-50 0 0 -50 c0 -43 -3
-50 -20 -50 -17 0 -20 7 -20 50 l0 50 -50 0 c-43 0 -50 3 -50 20 0 17 7 20 50
20 l50 0 0 50 c0 43 3 50 20 50 17 0 20 -7 20 -50z"/>
</g>
</svg>
