<svg width="18" height="18" viewBox="0 0 18 18" fill="none" xmlns="http://www.w3.org/2000/svg">
<path d="M17.1429 8.5715C17.1429 3.83936 13.3036 6.8903e-05 8.57143 6.8903e-05C3.83929 6.8903e-05 0 3.83936 0 8.5715C0 12.0871 2.10938 15.1005 5.13393 16.4286C5.11161 15.826 5.12277 15.1005 5.27902 14.4532C5.27902 14.4532 5.44643 13.7612 6.38393 9.78802C6.10491 9.24114 6.10491 8.42641 6.10491 8.42641C6.10491 7.15409 6.84152 6.20543 7.7567 6.20543C8.53795 6.20543 8.91741 6.79694 8.91741 7.50007C8.91741 8.28132 8.41518 9.45319 8.15848 10.5358C7.94643 11.451 8.61607 12.1876 9.50893 12.1876C11.1384 12.1876 12.2321 10.1005 12.2321 7.634C12.2321 5.74784 10.9598 4.34159 8.66071 4.34159C6.06027 4.34159 4.44196 6.28355 4.44196 8.44873C4.44196 9.1965 4.66518 9.72105 5.01116 10.134C5.16741 10.3237 5.18973 10.3907 5.13393 10.6139C5.08929 10.7702 5 11.1496 4.95536 11.2947C4.89955 11.5179 4.72098 11.5961 4.53125 11.5179C3.33705 11.0269 2.77902 9.70989 2.77902 8.23668C2.77902 5.80364 4.83259 2.87953 8.89509 2.87953C12.1763 2.87953 14.3304 5.25677 14.3304 7.79025C14.3304 11.1608 12.4554 13.6719 9.69866 13.6719C8.77232 13.6719 7.90179 13.1697 7.61161 12.6005C7.10938 14.576 7.00893 14.9554 7.00893 14.9554C6.83036 15.6139 6.46205 16.2724 6.13839 16.7858C6.91964 17.0202 7.72321 17.1429 8.57143 17.1429C13.3036 17.1429 17.1429 13.3036 17.1429 8.5715Z" />
</svg>
