<svg width="26" height="17" viewBox="0 0 26 17" fill="none" xmlns="http://www.w3.org/2000/svg">
<path d="M16.0379 8.3706C16.0379 7.83489 15.9821 7.42194 15.904 7.009H8.1808V9.8215H12.8237C12.6339 11.0157 11.4174 13.3483 8.1808 13.3483C5.39062 13.3483 3.11384 11.038 3.11384 8.18087C3.11384 5.32373 5.39062 3.01346 8.1808 3.01346C9.77679 3.01346 10.8371 3.69427 11.4397 4.27462L13.6607 2.14293C12.2321 0.803641 10.3906 6.8903e-05 8.1808 6.8903e-05C3.66071 6.8903e-05 0 3.66078 0 8.18087C0 12.701 3.66071 16.3617 8.1808 16.3617C12.9018 16.3617 16.0379 13.0469 16.0379 8.3706ZM25.7143 7.009H23.3817V4.67641H21.0379V7.009H18.7054V9.35275H21.0379V11.6853H23.3817V9.35275H25.7143V7.009Z" />
</svg>
