<svg width="18" height="15" viewBox="0 0 18 15" fill="none" xmlns="http://www.w3.org/2000/svg">
<path d="M17.5891 1.69636C16.9418 1.97538 16.2387 2.17627 15.5133 2.25439C16.261 1.80797 16.8302 1.10484 17.0981 0.267787C16.4061 0.680733 15.6249 0.982073 14.8101 1.13832C14.1516 0.435198 13.2141 -7.00951e-05 12.1762 -7.00951e-05C10.1784 -7.00951e-05 8.57129 1.61823 8.57129 3.60484C8.57129 3.88386 8.60477 4.16288 8.66058 4.43073C5.6695 4.27448 3.00209 2.84591 1.22754 0.658412C0.915039 1.19413 0.736468 1.80797 0.736468 2.47761C0.736468 3.72761 1.37263 4.83252 2.34361 5.47984C1.75209 5.45752 1.19406 5.29011 0.714146 5.02225C0.714146 5.03341 0.714146 5.05573 0.714146 5.06689C0.714146 6.81913 1.95299 8.27002 3.60477 8.60484C3.30343 8.68297 2.97977 8.72761 2.65611 8.72761C2.42174 8.72761 2.19852 8.70529 1.97531 8.6718C2.4329 10.1004 3.76102 11.1383 5.34584 11.1718C4.107 12.1428 2.55566 12.712 0.870396 12.712C0.569057 12.712 0.290039 12.7008 -0.000139482 12.6673C1.59584 13.6941 3.49316 14.2856 5.53558 14.2856C12.165 14.2856 15.7923 8.79457 15.7923 4.02895C15.7923 3.8727 15.7923 3.71645 15.7811 3.5602C16.4842 3.0468 17.0981 2.41064 17.5891 1.69636Z" />
</svg>
